<?xml version="1.0" standalone="no"?>
<!DOCTYPE svg PUBLIC "-//W3C//DTD SVG 20010904//EN"
 "http://www.w3.org/TR/2001/REC-SVG-20010904/DTD/svg10.dtd">
<svg version="1.0" xmlns="http://www.w3.org/2000/svg"
 width="1024.000000pt" height="1024.000000pt" viewBox="0 0 1024.000000 1024.000000"
 preserveAspectRatio="xMidYMid meet">
<metadata>
Created by potrace 1.11, written by Peter Selinger 2001-2013
</metadata>
<g transform="translate(0.000000,1024.000000) scale(0.100000,-0.100000)"
fill="#000000" stroke="none">
<path d="M3988 8343 c-3 -5 -4 -839 -4 -1855 l1 -1848 -50 -1 c-27 -1 -54 -1
-58 0 -5 1 -34 1 -65 1 -89 0 -93 0 -160 3 -34 1 -62 -2 -62 -6 0 -5 -5 -5
-10 -2 -15 9 -100 11 -100 3 0 -4 -7 -5 -16 -1 -22 8 -194 10 -194 1 0 -4 -12
-3 -27 1 -16 4 -44 4 -63 1 -19 -3 -54 -3 -78 1 -23 3 -45 2 -47 -2 -3 -4 -19
-4 -35 1 -18 5 -32 5 -36 -1 -3 -5 -10 -7 -15 -4 -8 6 -103 9 -124 5 -5 -1
-14 -2 -19 -1 -8 2 -142 2 -186 1 -18 -1 -140 -1 -225 0 -33 1 -67 1 -75 1 -8
0 -98 0 -200 0 -102 0 -196 0 -210 -1 -14 -1 -32 -1 -40 -1 -25 1 -77 1 -225
-2 -136 -2 -143 -3 -206 -34 -71 -35 -154 -111 -180 -165 -52 -108 -50 -93
-50 -364 l0 -231 -347 -1 c-220 0 -363 -5 -392 -12 -25 -6 -50 -12 -55 -13
-29 -7 -114 -65 -148 -101 -46 -50 -94 -145 -103 -206 -12 -82 -7 -1172 5
-1232 14 -67 69 -161 119 -206 20 -18 66 -47 102 -65 l65 -32 4140 0 4140 0
55 26 c90 42 164 134 185 229 5 19 9 148 9 285 l1 250 400 5 400 5 56 27 c72
36 123 88 159 163 l29 60 -2 685 c-2 679 -2 685 -24 732 -30 66 -93 130 -160
163 l-58 29 -295 3 c-162 2 -303 5 -312 7 -10 2 -18 1 -18 -2 0 -4 -71 -6
-157 -4 -244 4 -272 3 -283 -3 -6 -3 -10 -3 -10 2 0 8 -127 10 -135 1 -3 -3
-25 -2 -50 2 -25 4 -47 5 -50 2 -3 -3 -28 -4 -57 -4 -29 1 -80 2 -113 1 -68 0
-60 0 -140 1 -33 1 -64 1 -70 0 -5 -1 -37 -1 -70 0 -33 0 -69 0 -80 0 -30 -2
-65 -2 -170 0 -83 1 -190 -2 -196 -6 -4 -2 -10 0 -13 4 -3 5 -26 6 -51 2 -24
-4 -47 -5 -50 -2 -6 6 -195 5 -202 -1 -3 -3 -12 -3 -21 1 -15 5 -61 7 -79 2
-5 -1 -24 -1 -43 0 -89 6 -160 4 -160 -3 0 -5 -5 -5 -10 -2 -6 4 -34 6 -63 6
-60 -1 -135 0 -192 3 -22 1 -52 -2 -67 -6 -16 -3 -28 -4 -28 0 0 4 -33 6 -72
4 -71 -3 -89 -3 -155 1 -18 1 -33 -1 -33 -6 0 -4 -5 -5 -11 -1 -6 3 -52 6
-101 5 -71 -2 -88 1 -83 11 3 7 1 6 -7 -2 -10 -12 -41 -15 -151 -15 -75 0
-137 2 -137 5 0 3 -30 3 -66 0 -36 -3 -67 -3 -70 -1 -6 6 -114 7 -114 1 0 -8
-120 1 -121 8 -7 48 -2 393 6 395 6 2 559 3 1230 3 l1221 -1 0 555 c1 305 -2
557 -7 560 -4 3 -192 5 -418 4 -365 0 -411 2 -412 15 0 9 -1 109 -1 224 l-1
207 -41 1 c-23 0 -169 1 -326 2 l-285 2 1 175 c0 96 -3 177 -7 180 -4 3 -174
5 -378 5 l-372 -1 3 130 3 130 1218 0 1217 0 0 558 0 558 -2079 0 c-1144 0
-2081 -3 -2083 -7z"/>
<path d="M3520 4880 c-9 -6 -10 -10 -3 -10 6 0 15 5 18 10 8 12 4 12 -15 0z"/>
<path d="M5540 4766 c0 -2 8 -10 18 -17 15 -13 16 -12 3 4 -13 16 -21 21 -21
13z"/>
<path d="M5709 4723 c-13 -16 -12 -17 4 -4 16 13 21 21 13 21 -2 0 -10 -8 -17
-17z"/>
<path d="M5839 4713 c-13 -16 -12 -17 4 -4 16 13 21 21 13 21 -2 0 -10 -8 -17
-17z"/>
</g>
</svg>
